<svg xmlns="http://www.w3.org/2000/svg" width="156.2" height="18.9" viewBox="0 0 156.2 18.9">
  <defs>
    <style>
      .cls-1 {
        fill: #fff;
      }
    </style>
  </defs>
  <path id="パス_19" data-name="パス 19" class="cls-1" d="M15.94-14.02a6.35,6.35,0,0,1-1.74.22H10.1l.02-.02c.24-.42.76-1.34,1.24-2.04l-2.9-.9a8.849,8.849,0,0,1-.9,2.1A18.307,18.307,0,0,1,1.18-8.02L3.34-6.36a23.536,23.536,0,0,0,5.28-5.16h5.74a14.568,14.568,0,0,1-2.08,4.26c-1.34-.8-2.7-1.56-3.76-2.1l-1.7,1.9c1.02.58,2.38,1.4,3.74,2.28A16.913,16.913,0,0,1,3.1-.7L5.42,1.32A19.089,19.089,0,0,0,12.8-3.66a23.159,23.159,0,0,1,1.86,1.42l1.82-2.34c-.5-.36-1.18-.82-1.92-1.28a23.022,23.022,0,0,0,2.76-5.48,9.409,9.409,0,0,1,.66-1.42ZM30.1-11.9l-2.38.78a33.312,33.312,0,0,1,1.62,4.44l2.4-.84C31.46-8.44,30.48-11.04,30.1-11.9Zm4.56.56a13.479,13.479,0,0,1-2.54,6.86A13.457,13.457,0,0,1,25.48-.3l2.1,2.14a15.618,15.618,0,0,0,6.7-4.96A16.126,16.126,0,0,0,37-8.98c.12-.4.24-.82.48-1.46Zm-9.2.5-2.4.86a40.4,40.4,0,0,1,1.82,4.62l2.44-.92C26.92-7.4,25.96-9.82,25.46-10.84Zm31.76-2.68a1.157,1.157,0,0,1-1.16-1.14,1.161,1.161,0,0,1,1.16-1.16,1.157,1.157,0,0,1,1.14,1.16A1.153,1.153,0,0,1,57.22-13.52ZM44.46-14.2a22.269,22.269,0,0,1-2.38-.16v2.82c.52-.04,1.46-.08,2.38-.08h9.32a12.843,12.843,0,0,1-2.36,5.64,13.144,13.144,0,0,1-7.84,4.7L45.76,1.1A15.828,15.828,0,0,0,53.8-4.42a20.189,20.189,0,0,0,3-7.28l.16-.6a1.14,1.14,0,0,0,.26.02,2.4,2.4,0,0,0,2.38-2.38,2.4,2.4,0,0,0-2.38-2.4,2.407,2.407,0,0,0-2.4,2.4,2.215,2.215,0,0,0,.04.38,8.854,8.854,0,0,1-1.14.08ZM74.8-10.4l-1.48.62A15.431,15.431,0,0,1,74.88-7l1.52-.68A26.212,26.212,0,0,0,74.8-10.4Zm2.24-.92-1.46.68a17.6,17.6,0,0,1,1.64,2.7l1.5-.72A29.916,29.916,0,0,0,77.04-11.32ZM61.46-13.68l.26,2.72c2.3-.5,6.46-.94,8.18-1.12a7.854,7.854,0,0,0-2.92,6.1c0,4.3,3.92,6.54,8.08,6.8l.92-2.74c-3.36-.16-6.4-1.34-6.4-4.6a6.012,6.012,0,0,1,4.18-5.54,20.453,20.453,0,0,1,3.82-.26l-.02-2.56c-1.4.06-3.56.18-5.6.34-3.62.32-6.9.62-8.56.76C63.02-13.74,62.26-13.7,61.46-13.68Zm33.58-1.1a7.221,7.221,0,0,1-2.08.26H85.92a22.344,22.344,0,0,1-2.36-.14v2.84c.42-.02,1.52-.14,2.36-.14H92.7a15.5,15.5,0,0,1-2.98,4.9,22.659,22.659,0,0,1-8.2,5.74L83.58.84A26.345,26.345,0,0,0,91.1-4.78,45.607,45.607,0,0,1,96.14.88L98.42-1.1a56.223,56.223,0,0,0-5.58-5.72,29.4,29.4,0,0,0,3.14-5.5,9.451,9.451,0,0,1,.7-1.24Zm20.9.76a6.35,6.35,0,0,1-1.74.22h-4.1l.02-.02c.24-.42.76-1.34,1.24-2.04l-2.9-.9a8.848,8.848,0,0,1-.9,2.1,18.307,18.307,0,0,1-6.38,6.64l2.16,1.66a23.536,23.536,0,0,0,5.28-5.16h5.74a14.568,14.568,0,0,1-2.08,4.26c-1.34-.8-2.7-1.56-3.76-2.1l-1.7,1.9c1.02.58,2.38,1.4,3.74,2.28A16.913,16.913,0,0,1,103.1-.7l2.32,2.02a19.089,19.089,0,0,0,7.38-4.98,23.16,23.16,0,0,1,1.86,1.42l1.82-2.34c-.5-.36-1.18-.82-1.92-1.28a23.021,23.021,0,0,0,2.76-5.48,9.409,9.409,0,0,1,.66-1.42Zm5.9,7.9c.74-.06,2.08-.1,3.22-.1H135.8c.84,0,1.86.08,2.34.1V-9.26c-.52.04-1.42.12-2.34.12H125.06c-1.04,0-2.5-.06-3.22-.12Zm35.54-1.24a65.322,65.322,0,0,0-8.36-3.1V-13.4a21.75,21.75,0,0,1,.18-2.42h-3.12a13.949,13.949,0,0,1,.2,2.42V-1.92a21.4,21.4,0,0,1-.2,2.78h3.12c-.08-.8-.18-2.2-.18-2.78V-7.58a57.768,57.768,0,0,1,7.22,2.98Z" transform="translate(-1.18 17.06)"/>
</svg>
